<svg width="48" height="46" viewBox="0 0 48 46" fill="none" xmlns="http://www.w3.org/2000/svg">
<path d="M30.9783 34.714C30.9032 34.7038 30.8265 34.699 30.7484 34.7005C30.3735 34.7075 29.7934 34.8548 29.1587 35.5163C28.6548 36.0414 28.6343 36.5963 28.6161 37.0858C28.5988 37.5538 28.5851 37.9234 28.1823 38.1934C28.1428 38.22 28.1214 38.2653 28.1268 38.3115C28.1302 38.3405 28.1438 38.367 28.1645 38.387C28.1767 38.3988 28.1914 38.4083 28.2081 38.4148C28.9576 38.7075 30.2399 38.5641 31.284 37.5578C31.7582 37.1007 32.0412 36.6169 32.1024 36.1587C32.1183 36.0392 32.1186 35.9226 32.1048 35.8101L30.9783 34.714Z" fill="white" fill-opacity="0.3"/>
<path d="M15.3665 17.0736C13.6074 17.4814 12.3962 18.7847 12.3962 18.7847L11.4051 19.8511C14.7819 22.9894 16.0648 27.5491 15.1889 31.7587C19.3232 30.5773 23.9645 31.5232 27.371 34.689L28.362 33.6227C29.353 32.5563 29.7726 31.5109 29.8809 30.5627L19.5935 27.0193L15.3665 17.0736Z" fill="white" fill-opacity="0.3"/>
<path d="M40.806 32.7664L32.4789 13.2137L12.3696 6.33895L20.6967 25.8916C28.5499 28.5764 32.9529 30.0816 40.806 32.7664Z" fill="white" fill-opacity="0.3"/>
<path d="M36.5135 31.2989L35.2745 30.8753C34.703 31.2245 32.7874 32.7043 32.3052 33.1691C32.0641 33.4015 31.7548 33.7997 31.4873 34.1678L32.6138 35.2639C32.996 35.006 33.4112 34.7065 33.6558 34.4708C34.1436 34.0006 36.0965 31.833 36.5135 31.2989Z" fill="white" fill-opacity="0.3"/>
</svg>
