<svg width="1000" height="1000" viewBox="0 0 1000 1000" fill="none" xmlns="http://www.w3.org/2000/svg">
<rect width="1000" height="1000" rx="500" fill="black"/>
<path d="M305.158 532.79C286.737 560.053 286.737 592.474 286.737 592.474V619C370.737 619 444.421 663.947 484.947 731C525.474 663.947 599.158 619 683.895 619V592.474C683.895 565.947 676.526 546.79 666.21 532.79L484.947 613.105L305.158 532.79Z" fill="white"/>
<path d="M839.368 426.684L485.684 269L132 426.684L485.684 584.368L839.368 426.684Z" fill="white"/>
<path d="M732.342 574.598C731.214 575.393 730.13 576.281 729.107 577.269C724.19 582.013 718.273 591.175 718.007 607.878C717.796 621.136 724.404 628.797 730.235 635.556C735.808 642.018 740.21 647.121 738.184 655.722C737.986 656.567 738.263 657.436 738.908 657.986C739.313 658.332 739.822 658.517 740.347 658.526C740.657 658.532 740.972 658.477 741.274 658.357C754.909 652.965 770.246 635.146 771.699 608.763C772.358 596.781 770.134 586.812 765.267 579.938C763.997 578.144 762.554 576.584 760.974 575.255L732.342 574.598Z" fill="white"/>
<path d="M754.055 427.514C748.327 427.41 743.33 431.748 742.613 437.447C742.163 441.03 731.568 525.321 730.897 537.505C730.561 543.598 731.373 552.751 732.368 560.982L761 561.638C762.903 553.455 764.73 544.307 765.07 538.128C765.748 525.8 764.439 441.428 764.384 437.842C764.294 432.129 759.784 427.618 754.055 427.514Z" fill="white"/>
</svg>
